<?xml version="1.0" standalone="no"?>
<!DOCTYPE svg PUBLIC "-//W3C//DTD SVG 20010904//EN"
 "http://www.w3.org/TR/2001/REC-SVG-20010904/DTD/svg10.dtd">
<svg version="1.0" xmlns="http://www.w3.org/2000/svg"
 width="1200.000000pt" height="1200.000000pt" viewBox="0 0 1200.000000 1200.000000"
 preserveAspectRatio="xMidYMid meet">
<metadata>
Created by potrace 1.14, written by Peter Selinger 2001-2017
</metadata>
<g transform="translate(0.000000,1200.000000) scale(0.100000,-0.100000)"
fill="#000000" stroke="none">
<path d="M5944 10842 c-6 -4 -35 -38 -64 -77 -30 -38 -57 -71 -62 -73 -4 -2
-8 -8 -8 -13 0 -8 -80 -116 -115 -155 -5 -7 -19 -24 -30 -40 -11 -15 -49 -66
-85 -113 -37 -47 -117 -153 -180 -236 -62 -82 -123 -162 -134 -176 -12 -14
-32 -40 -46 -59 -28 -37 -76 -100 -88 -115 -9 -12 -230 -301 -367 -482 -55
-72 -151 -198 -213 -280 l-112 -148 -188 2 c-103 1 -515 4 -917 8 -401 3 -905
8 -1118 10 -358 3 -388 2 -382 -13 4 -10 16 -51 27 -92 11 -41 24 -91 29 -110
5 -19 12 -43 14 -52 3 -10 7 -26 10 -35 2 -10 9 -34 14 -53 5 -19 16 -60 25
-92 8 -31 17 -67 20 -80 2 -12 9 -36 16 -53 6 -16 11 -30 10 -30 -1 0 1 -7 3
-15 3 -8 10 -35 16 -60 6 -25 20 -79 32 -120 11 -41 22 -83 24 -93 2 -9 6 -21
9 -25 3 -5 8 -23 11 -41 3 -18 17 -71 30 -118 14 -47 27 -95 30 -107 8 -40 43
-161 53 -187 6 -15 8 -29 5 -32 -3 -3 -1 -12 3 -19 5 -7 9 -17 10 -23 1 -5 23
-86 49 -180 26 -93 51 -186 55 -205 8 -33 46 -173 91 -335 11 -38 21 -77 24
-85 2 -8 15 -59 30 -113 26 -96 26 -99 8 -120 -10 -12 -30 -35 -44 -52 -180
-208 -321 -371 -364 -420 -28 -33 -67 -78 -86 -100 -19 -22 -44 -51 -56 -65
-54 -62 -67 -78 -104 -121 -21 -25 -49 -57 -61 -71 -13 -14 -48 -53 -78 -88
-30 -35 -59 -68 -65 -74 -9 -10 -53 -62 -145 -170 -14 -16 -36 -42 -50 -57
-14 -15 -43 -49 -65 -75 -49 -59 -103 -120 -177 -204 -56 -65 -80 -93 -120
-140 -25 -29 -140 -162 -175 -203 l-24 -28 38 -15 c79 -33 129 -55 154 -69 14
-8 29 -12 33 -8 3 3 6 1 6 -5 0 -7 6 -12 13 -12 8 0 41 -13 75 -30 34 -16 66
-30 70 -30 5 0 28 -10 53 -21 45 -22 241 -108 359 -159 36 -15 85 -36 110 -47
40 -18 323 -142 405 -178 17 -7 52 -23 80 -35 79 -35 100 -43 108 -42 4 1 7
-2 7 -8 0 -5 5 -10 11 -10 10 0 169 -67 289 -122 25 -12 74 -33 110 -48 36
-15 86 -37 112 -49 109 -49 148 -66 248 -108 116 -49 119 -51 124 -79 2 -10
13 -57 24 -104 11 -47 20 -92 20 -100 1 -8 17 -82 36 -165 19 -82 37 -163 39
-180 3 -16 14 -68 26 -115 17 -70 37 -163 66 -305 3 -11 9 -40 15 -65 5 -25
12 -56 15 -70 4 -21 31 -141 39 -175 6 -23 26 -122 30 -145 3 -14 5 -25 6 -25
1 0 3 -9 5 -20 2 -11 13 -63 25 -115 11 -52 23 -106 26 -120 2 -14 13 -63 24
-110 10 -47 21 -96 24 -110 9 -47 31 -146 51 -232 7 -32 14 -61 14 -63 1 -3 1
-6 2 -7 6 -21 11 -50 18 -100 2 -14 23 -9 85 21 34 16 113 54 177 84 152 72
389 187 514 248 55 27 106 49 113 49 6 0 12 5 12 10 0 6 4 10 9 10 12 0 298
136 671 318 96 47 177 86 180 87 8 2 95 43 305 145 105 51 195 93 200 93 6 0
40 -14 77 -31 37 -18 69 -32 71 -32 2 0 40 -17 83 -37 43 -20 81 -38 84 -38 3
-1 21 -8 40 -17 19 -8 98 -43 175 -77 128 -57 189 -85 285 -130 19 -8 37 -16
40 -17 7 -1 43 -17 120 -52 36 -16 88 -39 115 -52 28 -12 74 -33 103 -46 29
-13 54 -24 56 -24 3 0 38 -16 79 -35 41 -19 80 -35 86 -35 6 0 11 -4 11 -8 0
-5 6 -9 13 -9 6 0 50 -18 97 -40 47 -22 119 -55 160 -73 41 -17 108 -47 148
-66 41 -19 76 -34 78 -34 6 0 66 -27 193 -86 51 -24 96 -44 100 -44 3 -1 29
-11 56 -24 28 -13 51 -23 52 -22 0 0 4 19 7 40 4 22 18 93 31 160 14 66 27
134 29 151 3 16 12 63 20 102 9 40 18 85 21 100 3 16 7 39 10 53 3 14 8 40 11
59 3 18 8 43 10 55 13 57 35 175 40 206 3 19 7 42 10 50 3 8 8 30 10 49 3 19
9 55 15 80 6 25 13 57 15 71 4 22 9 46 29 150 3 14 8 39 10 55 3 17 8 37 10
45 2 8 6 31 9 50 2 19 9 55 15 80 5 25 13 61 16 80 3 19 8 42 10 50 2 8 6 26
9 40 18 103 34 185 36 185 1 0 3 9 4 20 1 11 6 38 10 60 5 22 10 51 13 65 2
13 11 56 19 95 8 38 17 86 20 105 3 19 9 49 13 65 4 17 7 38 5 48 -1 9 2 17 8
17 6 0 43 15 82 34 39 19 98 46 131 61 33 15 111 52 173 81 63 30 115 54 117
54 2 0 61 28 131 61 71 34 158 75 194 91 36 16 97 45 135 63 73 34 101 45 111
44 4 0 10 3 13 8 8 11 128 67 137 64 4 -2 10 1 13 6 5 8 136 73 145 73 2 0 65
29 141 65 75 36 138 65 140 65 3 0 41 18 85 39 44 22 80 37 80 35 0 -3 12 3
28 14 15 10 45 26 67 34 22 9 90 40 150 69 61 29 112 53 115 54 3 0 30 12 60
27 30 15 67 31 83 37 15 6 27 15 27 21 0 6 -5 8 -12 4 -7 -4 -8 -3 -4 4 4 6
-1 20 -11 30 -22 22 -154 168 -183 202 -18 21 -137 153 -175 194 -5 6 -41 47
-80 91 -38 44 -77 87 -85 95 -8 8 -55 60 -104 115 -49 55 -119 134 -157 175
-37 41 -76 85 -87 98 -11 12 -53 59 -94 105 -41 45 -92 102 -114 127 -21 24
-52 58 -69 75 -16 18 -41 45 -55 62 -14 17 -61 70 -105 118 -44 49 -87 96 -95
105 -70 80 -154 173 -195 218 l-51 54 18 72 c10 39 20 80 22 91 2 11 13 53 25
94 11 40 20 76 19 80 -1 3 1 13 5 21 4 12 18 66 41 160 2 8 18 74 36 145 18
72 34 138 36 148 2 9 6 25 8 35 3 9 17 64 31 122 14 58 28 116 32 130 4 14 7
32 8 40 1 8 6 26 10 40 5 14 10 30 11 35 1 6 10 39 19 75 9 36 19 74 21 85 2
11 15 63 28 115 14 52 27 106 30 120 3 14 14 61 26 105 12 44 24 91 26 104 3
14 7 28 9 31 2 4 7 22 10 40 3 18 14 64 25 102 10 37 17 68 14 68 -3 0 0 8 5
18 5 9 12 31 15 47 3 17 10 50 16 75 7 25 13 52 15 60 2 8 11 44 20 80 10 36
19 77 21 91 l5 26 -98 -3 c-54 -1 -192 -6 -308 -9 -115 -4 -259 -8 -320 -10
-60 -2 -193 -6 -295 -9 -240 -7 -468 -14 -655 -21 -82 -3 -226 -7 -318 -10
-92 -2 -172 -7 -177 -10 -5 -3 -11 -1 -15 5 -4 6 -11 7 -17 4 -6 -4 -61 -8
-122 -9 -61 -2 -150 -4 -198 -5 l-87 -3 -48 59 c-26 32 -50 61 -53 64 -3 3
-17 21 -31 40 -15 19 -36 46 -48 60 -11 14 -24 30 -28 35 -5 6 -24 30 -43 55
-19 25 -43 54 -52 65 -15 18 -668 834 -743 929 -16 21 -40 50 -52 64 -11 15
-114 144 -228 287 -239 301 -227 286 -241 277z"/>
</g>
</svg>
